<?xml version="1.0" encoding="UTF-8" standalone="no"?>
<!-- Created with Inkscape (http://www.inkscape.org/) -->

<svg
   width="100"
   height="100"
   viewBox="0 0 100 100"
   version="1.1"
   id="svg5"
   inkscape:version="1.1.2 (0a00cf5339, 2022-02-04)"
   sodipodi:docname="favicon.svg"
   inkscape:export-filename="/home/jeremy/favicon.png"
   inkscape:export-xdpi="30.719999"
   inkscape:export-ydpi="30.719999"
   xmlns:inkscape="http://www.inkscape.org/namespaces/inkscape"
   xmlns:sodipodi="http://sodipodi.sourceforge.net/DTD/sodipodi-0.dtd"
   xmlns="http://www.w3.org/2000/svg"
   xmlns:svg="http://www.w3.org/2000/svg">
  <sodipodi:namedview
     id="namedview7"
     pagecolor="#ffffff"
     bordercolor="#666666"
     borderopacity="1.0"
     inkscape:pageshadow="2"
     inkscape:pageopacity="0.0"
     inkscape:pagecheckerboard="true"
     inkscape:document-units="px"
     showgrid="false"
     units="px"
     width="100px"
     inkscape:snap-object-midpoints="true"
     inkscape:snap-midpoints="true"
     inkscape:snap-bbox="true"
     inkscape:bbox-paths="true"
     inkscape:bbox-nodes="true"
     inkscape:snap-bbox-edge-midpoints="true"
     inkscape:snap-bbox-midpoints="true"
     inkscape:snap-page="true"
     inkscape:zoom="2.5850501"
     inkscape:cx="114.89139"
     inkscape:cy="138.10177"
     inkscape:window-width="2248"
     inkscape:window-height="1363"
     inkscape:window-x="26"
     inkscape:window-y="23"
     inkscape:window-maximized="0"
     inkscape:current-layer="layer1" />
  <defs
     id="defs2" />
  <g
     inkscape:label="Layer 1"
     inkscape:groupmode="layer"
     id="layer1">
    <rect
       style="fill:#ffffff;stroke-linejoin:round"
       id="rect1058"
       width="35.806805"
       height="15.008824"
       x="2.6153579"
       y="-68.988464"
       ry="4.8010373" />
    <rect
       style="fill:#f1f1f1;fill-opacity:1;stroke-linejoin:round"
       id="rect1058-3"
       width="35.806805"
       height="15.008824"
       x="2.6153579"
       y="-53.979637"
       ry="4.8010373" />
    <rect
       style="fill:#2f2f2f;fill-opacity:1;stroke-linejoin:round"
       id="rect1058-6"
       width="35.806805"
       height="15.008824"
       x="2.6153579"
       y="-38.97081"
       ry="4.8010373" />
    <rect
       style="fill:#1f1f1f;fill-opacity:1;stroke-linejoin:round"
       id="rect1058-8"
       width="35.806805"
       height="15.008824"
       x="2.6153579"
       y="-23.961992"
       ry="4.8010373" />
    <rect
       style="fill:#00ff00;fill-opacity:1;stroke-linejoin:round"
       id="rect1058-0"
       width="35.806805"
       height="15.008824"
       x="38.422161"
       y="-38.970814"
       ry="4.8010373" />
    <rect
       style="fill:#00aa00;fill-opacity:1;stroke-linejoin:round"
       id="rect1058-0-2"
       width="35.806805"
       height="15.008824"
       x="38.422161"
       y="-23.96199"
       ry="4.8010373" />
    <rect
       style="fill:#333333;stroke-width:1.12724;stroke-linejoin:round"
       id="rect910-4"
       width="100.00007"
       height="100.00005"
       x="0.12651062"
       y="124.04272" />
    <rect
       style="fill:#2f2f2f;stroke-width:1.12724;stroke-linejoin:round;fill-opacity:1"
       id="rect910-4-9"
       width="100.00007"
       height="100.00005"
       x="0"
       y="0" />
    <rect
       style="fill:#cccccc;stroke-width:0.759407;stroke-linejoin:round"
       id="rect1058-5-6"
       width="27.191938"
       height="11.397804"
       x="86.530624"
       y="196.645"
       ry="3.6459408" />
    <rect
       style="fill:#cccccc;stroke-width:0.759407;stroke-linejoin:round"
       id="rect1058-5-0-9"
       width="27.191938"
       height="11.397804"
       x="86.530624"
       y="180.64497"
       ry="3.6459408" />
    <rect
       style="fill:#cccccc;stroke-width:0.759407;stroke-linejoin:round"
       id="rect1058-5-0-9-6"
       width="27.191938"
       height="11.397804"
       x="86.530609"
       y="140.04272"
       ry="3.6459408" />
    <rect
       style="fill:#cccccc;stroke-width:0.759407;stroke-linejoin:round"
       id="rect1058-5-0-5-2"
       width="27.191938"
       height="11.397804"
       x="-13.469437"
       y="140.04276"
       ry="3.6459408" />
    <path
       id="rect1058-5-0-5-2-9"
       style="fill:#f1f1f1;stroke-width:0.759407;stroke-linejoin:round;fill-opacity:1"
       d="M 0 16 L 0 27.398438 L 9.9492188 27.398438 C 11.96907 27.398438 13.595703 25.771804 13.595703 23.751953 L 13.595703 19.646484 C 13.595703 17.626633 11.96907 16 9.9492188 16 L 0 16 z " />
    <path
       id="rect1058-5-0-5-2-9-6"
       style="fill:#f1f1f1;fill-opacity:1;stroke-width:0.759407;stroke-linejoin:round"
       d="m 100,16 v 11.398438 h -9.949218 c -2.019852,0 -3.646484,-1.626634 -3.646484,-3.646485 V 19.646484 C 86.404298,17.626633 88.03093,16 90.050782,16 Z" />
    <path
       id="rect1058-5-0-5-2-9-6-2"
       style="fill:#f1f1f1;stroke-width:0.759407;stroke-linejoin:round;fill-opacity:1"
       d="M 84,99.999998 H 72.601562 v -9.949215 c 0,-2.019854 1.62663,-3.646484 3.646485,-3.646484 h 4.105469 C 82.37337,86.404299 84,88.030929 84,90.050783 Z" />
    <path
       id="rect1058-5-0-5-2-9-6-2-2"
       style="fill:#f1f1f1;stroke-width:0.759407;stroke-linejoin:round;fill-opacity:1"
       d="M 27.398437,4e-6 H 16 v 9.949215 c 0,2.019854 1.62663,3.646484 3.646484,3.646484 h 4.105469 c 2.019854,0 3.646484,-1.62663 3.646484,-3.646484 z" />
    <path
       id="rect1058-5-0-5-2-9-6-9"
       style="fill:#f1f1f1;stroke-width:0.759407;stroke-linejoin:round;fill-opacity:1"
       d="M 100,72.601562 V 84 h -9.94922 c -2.019852,0 -3.646484,-1.626634 -3.646484,-3.646485 v -4.105469 c 0,-2.019851 1.626632,-3.646484 3.646484,-3.646484 z" />
    <rect
       style="fill:#cccccc;stroke-width:0.759407;stroke-linejoin:round"
       id="rect1058-5-4-2"
       width="27.191935"
       height="11.397806"
       x="-237.63878"
       y="72.728775"
       ry="3.6459415"
       transform="rotate(-90)" />
    <rect
       style="fill:#cccccc;stroke-width:0.759407;stroke-linejoin:round"
       id="rect1058-5-4-9-4"
       width="27.191935"
       height="11.397806"
       x="-137.63872"
       y="16.126541"
       ry="3.6459415"
       transform="rotate(-90)" />
    <g
       aria-label="JM"
       id="text5160-1"
       style="font-size:59.8085px;line-height:1.25;fill:#f1f1f1;stroke-width:1.49521"
       transform="matrix(1.1213335,0,0,1.1213335,-6.1599325,-3.7064356)">
      <path
         d="M 40.064256,28.827559 H 23.71037 c -1.168135,0 -2.044236,0.876101 -2.044236,2.044236 v 1.635388 c 0,1.168135 0.876101,2.044236 2.044236,2.044236 h 12.207008 v 19.975104 c 0,8.702604 -3.679624,11.214093 -8.58579,11.214093 -2.33627,0 -4.322099,-0.408847 -6.891995,-1.284948 -1.051322,-0.467254 -2.16105,0.05841 -2.569897,1.109728 l -0.584067,1.401762 c -0.467254,1.109728 -0.05841,2.277863 1.051321,2.68671 2.803524,1.226541 5.957487,1.810609 8.994638,1.810609 7.534469,0 14.776904,-4.322099 14.776904,-16.937954 V 30.871795 c 0,-1.168135 -0.876101,-2.044236 -2.044236,-2.044236 z"
         style="font-weight:bold;font-family:mononoki;-inkscape-font-specification:mononoki"
         id="path10036" />
      <path
         d="M 78.904736,68.777767 77.736602,30.579761 c 0,-1.284948 -0.817695,-2.044236 -2.16105,-2.044236 h -0.934507 c -1.869016,0 -3.212371,0.817694 -3.971659,2.453083 L 63.310138,45.707106 55.950889,30.988608 c -0.759288,-1.635389 -2.102643,-2.453083 -3.971658,-2.453083 h -0.934508 c -1.343355,0 -2.161049,0.759288 -2.161049,2.044236 l -1.168135,38.198006 c 0,1.168134 0.934508,2.102642 2.102642,2.102642 h 1.985829 c 1.168135,0 1.98583,-0.817694 2.044236,-2.044236 l 0.992915,-29.495402 5.431826,10.863653 c 0.408847,0.934508 1.168135,1.401762 2.219456,1.401762 h 1.635389 c 1.051321,0 1.810609,-0.467254 2.219456,-1.401762 l 5.431826,-10.863653 0.992915,29.436996 c 0.05841,1.284948 0.876101,2.102642 2.044236,2.102642 h 1.985829 c 1.168135,0 2.102642,-0.934508 2.102642,-2.102642 z"
         style="font-weight:bold;font-family:mononoki;-inkscape-font-specification:mononoki"
         id="path10038" />
    </g>
    <rect
       style="fill:#2f2f2f;fill-opacity:1;stroke-width:1.12724;stroke-linejoin:round"
       id="rect910-4-9-5"
       width="100.00007"
       height="100.00005"
       x="108"
       y="-6.0403727e-07" />
    <path
       id="rect1058-5-0-5-2-9-4"
       style="fill:#f1f1f1;fill-opacity:1;stroke-width:0.759407;stroke-linejoin:round"
       d="m 108,16 v 11.398438 h 9.94922 c 2.01985,0 3.64648,-1.626634 3.64648,-3.646485 V 19.646484 C 121.5957,17.626633 119.96907,16 117.94922,16 Z" />
    <path
       id="rect1058-5-0-5-2-9-6-2-2-9"
       style="fill:#f1f1f1;fill-opacity:1;stroke-width:0.759407;stroke-linejoin:round"
       d="M 135.39843,3.73e-6 H 124 V 9.949219 c 0,2.019854 1.62663,3.646484 3.64648,3.646484 h 4.10547 c 2.01985,0 3.64648,-1.62663 3.64648,-3.646484 z" />
    <g
       aria-label="JM"
       id="text5160-1-6"
       style="font-size:59.8085px;line-height:1.25;fill:#f1f1f1;stroke-width:1.49521"
       transform="matrix(1.2486021,0,0,1.2486021,98.06713,-8.43008)">
      <path
         d="M 40.064256,28.827559 H 23.71037 c -1.168135,0 -2.044236,0.876101 -2.044236,2.044236 v 1.635388 c 0,1.168135 0.876101,2.044236 2.044236,2.044236 h 12.207008 v 19.975104 c 0,8.702604 -3.679624,11.214093 -8.58579,11.214093 -2.33627,0 -4.322099,-0.408847 -6.891995,-1.284948 -1.051322,-0.467254 -2.16105,0.05841 -2.569897,1.109728 l -0.584067,1.401762 c -0.467254,1.109728 -0.05841,2.277863 1.051321,2.68671 2.803524,1.226541 5.957487,1.810609 8.994638,1.810609 7.534469,0 14.776904,-4.322099 14.776904,-16.937954 V 30.871795 c 0,-1.168135 -0.876101,-2.044236 -2.044236,-2.044236 z"
         style="font-weight:bold;font-family:mononoki;-inkscape-font-specification:mononoki"
         id="path10036-9" />
      <path
         d="M 78.904736,68.777767 77.736602,30.579761 c 0,-1.284948 -0.817695,-2.044236 -2.16105,-2.044236 h -0.934507 c -1.869016,0 -3.212371,0.817694 -3.971659,2.453083 L 63.310138,45.707106 55.950889,30.988608 c -0.759288,-1.635389 -2.102643,-2.453083 -3.971658,-2.453083 h -0.934508 c -1.343355,0 -2.161049,0.759288 -2.161049,2.044236 l -1.168135,38.198006 c 0,1.168134 0.934508,2.102642 2.102642,2.102642 h 1.985829 c 1.168135,0 1.98583,-0.817694 2.044236,-2.044236 l 0.992915,-29.495402 5.431826,10.863653 c 0.408847,0.934508 1.168135,1.401762 2.219456,1.401762 h 1.635389 c 1.051321,0 1.810609,-0.467254 2.219456,-1.401762 l 5.431826,-10.863653 0.992915,29.436996 c 0.05841,1.284948 0.876101,2.102642 2.044236,2.102642 h 1.985829 c 1.168135,0 2.102642,-0.934508 2.102642,-2.102642 z"
         style="font-weight:bold;font-family:mononoki;-inkscape-font-specification:mononoki"
         id="path10038-2" />
    </g>
    <rect
       style="fill:#2f2f2f;fill-opacity:1;stroke-width:1.12724;stroke-linejoin:round"
       id="rect910-4-9-5-8"
       width="100.00007"
       height="100.00005"
       x="216.00006"
       y="-6.0403727e-07" />
    <g
       aria-label="JM"
       id="text5160-1-6-8"
       style="font-size:59.8085px;line-height:1.25;fill:#f1f1f1;stroke-width:1.49521"
       transform="matrix(1.4332392,0,0,1.4332392,197.20461,-21.661936)">
      <path
         d="M 40.064256,28.827559 H 23.71037 c -1.168135,0 -2.044236,0.876101 -2.044236,2.044236 v 1.635388 c 0,1.168135 0.876101,2.044236 2.044236,2.044236 h 12.207008 v 19.975104 c 0,8.702604 -3.679624,11.214093 -8.58579,11.214093 -2.33627,0 -4.322099,-0.408847 -6.891995,-1.284948 -1.051322,-0.467254 -2.16105,0.05841 -2.569897,1.109728 l -0.584067,1.401762 c -0.467254,1.109728 -0.05841,2.277863 1.051321,2.68671 2.803524,1.226541 5.957487,1.810609 8.994638,1.810609 7.534469,0 14.776904,-4.322099 14.776904,-16.937954 V 30.871795 c 0,-1.168135 -0.876101,-2.044236 -2.044236,-2.044236 z"
         style="font-weight:bold;font-family:mononoki;-inkscape-font-specification:mononoki"
         id="path10036-9-9" />
      <path
         d="M 78.904736,68.777767 77.736602,30.579761 c 0,-1.284948 -0.817695,-2.044236 -2.16105,-2.044236 h -0.934507 c -1.869016,0 -3.212371,0.817694 -3.971659,2.453083 L 63.310138,45.707106 55.950889,30.988608 c -0.759288,-1.635389 -2.102643,-2.453083 -3.971658,-2.453083 h -0.934508 c -1.343355,0 -2.161049,0.759288 -2.161049,2.044236 l -1.168135,38.198006 c 0,1.168134 0.934508,2.102642 2.102642,2.102642 h 1.985829 c 1.168135,0 1.98583,-0.817694 2.044236,-2.044236 l 0.992915,-29.495402 5.431826,10.863653 c 0.408847,0.934508 1.168135,1.401762 2.219456,1.401762 h 1.635389 c 1.051321,0 1.810609,-0.467254 2.219456,-1.401762 l 5.431826,-10.863653 0.992915,29.436996 c 0.05841,1.284948 0.876101,2.102642 2.044236,2.102642 h 1.985829 c 1.168135,0 2.102642,-0.934508 2.102642,-2.102642 z"
         style="font-weight:bold;font-family:mononoki;-inkscape-font-specification:mononoki"
         id="path10038-2-3" />
    </g>
  </g>
</svg>
